<?xml version="1.0" encoding="utf-8"?>
<svg version="1.1" id="_Group_2" xmlns="http://www.w3.org/2000/svg" xmlns:xlink="http://www.w3.org/1999/xlink" x="0px" y="0px"
	 viewBox="0 0 116.4 31.2" style="enable-background:new 0 0 116.4 31.2;" xml:space="preserve" fill="#ffffff">
<path id="Path_8" d="M3,7.7h4.7l-3,17H0L3,7.7z"/>
<path id="Path_9" d="M11.6,7.7h3.6l0.4,1.5c1.2-1.2,2.9-1.9,4.6-1.9c3.6,0,5.9,2.3,5.1,6.7l-1.8,10.5h-4.7l1.9-10.9
	c0.3-1.6-0.8-2.3-2.1-2.3c-1.7,0-3.2,1.3-3.4,3l-1.8,10.2H8.6L11.6,7.7z"/>
<path id="Path_10" d="M36.5,7.7h4.2l-0.7,4.1h-4.2l-3.4,19.4h-4.7l3.4-19.4h-2.9l0.7-4.1h2.9L32,6.6C32.7,2.9,34.6,0,41.9,0
	c2.3,0,4.7,0.3,7,0.7l-4.2,24h-4.7l3.6-20.4c-0.9-0.1-1.8-0.2-2.5-0.2c-2.6,0-3.9,0.7-4.2,2.4L36.5,7.7z"/>
<path id="Path_11" d="M63.3,24.7h-3.6l-0.4-1.5c-1.2,1.2-2.9,1.9-4.6,1.9c-3.6,0-5.9-2.3-5.1-6.8l1.8-10.5h4.7l-1.9,10.9
	c-0.3,1.6,0.8,2.3,2.1,2.3c1.7,0,3.2-1.3,3.4-3l1.8-10.2h4.7L63.3,24.7z"/>
<path id="Path_12" d="M70.1,7.7h4.7l-3,17h-4.7L70.1,7.7z"/>
<path id="Path_13" d="M85.4,11.8h-8l0.7-4.1H92l-0.7,4.1l-9.5,8.8h8L89,24.6H75.2l0.7-4.1L85.4,11.8z"/>
<path id="Path_14" d="M107.5,19.1c-1.1,3.9-3.8,5.9-8.1,5.9c-4.4,0-7.3-2.2-6.6-6.8l0.7-4.1c0.8-4.5,3.8-6.7,8.3-6.7
	c4.5,0,7.3,2.3,6.5,6.7l-0.6,3.5H97.7l-0.2,0.9c-0.2,1.4,0.5,2.3,2.3,2.3c1.3,0.2,2.5-0.6,3-1.8H107.5z M98.3,14.2h5.4l0.1-0.4
	c0.3-1.6-0.6-2.3-2.2-2.3c-1.5-0.2-2.9,0.9-3.1,2.3L98.3,14.2z"/>
<path id="Path_15" d="M111,19.3h5.4l-0.9,5.4H110L111,19.3z"/>
</svg>
